<svg xmlns="http://www.w3.org/2000/svg" viewBox="0 0 359.02 188.15"><defs><style>.cls-1{fill:#fff;}</style></defs><title>アセット 1</title><g id="レイヤー_2" data-name="レイヤー 2"><g id="レイヤ_1" data-name="レイヤ－ 1"><path class="cls-1" d="M93.11,166.24A1.91,1.91,0,0,0,91,164.17a2,2,0,0,0-2.17,2.11A2.13,2.13,0,0,0,91,168.47,2,2,0,0,0,93.11,166.24Z"/><path class="cls-1" d="M349.6,74.08c7.47-9.57,9.2-22.08,9.2-30.94a44.6,44.6,0,0,0-9.59-28.66c-7-9.31-18-14.48-36.67-14.48H298.32V89.22H315C329.29,89.22,340.52,85.73,349.6,74.08Z"/><rect class="cls-1" x="234.9" width="53.52" height="152.34"/><rect class="cls-1" width="52.3" height="152.38"/><polygon class="cls-1" points="107.98 0 55.58 0 107.98 59.88 107.98 0"/><polygon class="cls-1" points="71.72 88.58 89.02 105.9 88.98 42.7 72.02 59.71 73.37 58.56 56.87 58.56 56.87 89.26 73.25 89.26 71.72 88.58"/><polygon class="cls-1" points="110.86 152.38 110.86 85.02 56.13 152.38 110.86 152.38"/><polygon class="cls-1" points="120.72 74.58 120.72 152.34 181.14 152.34 120.72 74.58"/><path class="cls-1" d="M188.4,139.2a12.34,12.34,0,0,1,2.25,6.45c0,4.38-4.05,6.75-4.05,6.75H199a27.79,27.79,0,0,0,13.5-4c7.6-4.61,9.76-7.42,12.66-11.7,2.74-4,5.27-11.79,5.33-16.62.06-5.12,0-5.48,0-5.82,0-10.14-7-20.22-7-20.22L161.16,16.62a14.24,14.24,0,0,1-3.24-8.76c0-4.8,4.32-7.86,4.32-7.86h-12.9c-6.48,0-14.64,3.48-19.92,7.92s-13.08,13.26-13.08,27.15a35,35,0,0,0,8.46,23.28Z"/><polygon class="cls-1" points="221.7 0 165.24 0 221.7 70.68 221.7 0"/><path class="cls-1" d="M351.42,137.05c0-8.12-6.18-12.78-12.78-12.78-6.24,0-12.77,4.33-12.77,12.79,0,8.28,6.61,12.7,13,12.7A12.65,12.65,0,0,0,351.42,137.05ZM328,136.81a10.92,10.92,0,0,1,10.59-10.56,11.08,11.08,0,0,1,10.82,10.59,10.71,10.71,0,1,1-21.41,0Z"/><path class="cls-1" d="M103,175.42h2.22a.81.81,0,0,1,.68.8c0,.69,1,1.36,1,1.36H110l.9-.91v-2.85a2.81,2.81,0,0,0-3-2.94h-7.83A3,3,0,0,0,97,173.79v11.46a2.92,2.92,0,0,0,2.88,2.88h8.25a2.82,2.82,0,0,0,2.79-2.79v-3.42l-1-1h-3.14s-.94.53-.94,1.25a1,1,0,0,1-.6.91h-2.25l-.53-.48V175.9Z"/><path class="cls-1" d="M343.81,141.84c0-1.45-.31-3.15-1.13-4a6.93,6.93,0,0,0-1.55-1.23,5,5,0,0,1,.87-.84,3.85,3.85,0,0,0,1.37-2.87,4.71,4.71,0,0,0-1.12-3.16,6.68,6.68,0,0,0-4.15-1.62h-4v16.78h2.41v-7.63h1.77a3.12,3.12,0,0,1,2.31,1.23,8.7,8.7,0,0,1,.85,3.56c0,.66,0,2.8,0,2.8h2.92C343.69,144.67,343.81,143.06,343.81,141.84Zm-5.71-6.46-1.61,0v-5.3h1.43c1.77,0,3.35,1.14,3.35,2.61S339.62,135.38,338.1,135.38Z"/><path class="cls-1" d="M287.28,173.67v11.77a2.78,2.78,0,0,0,2.67,2.71h3.17a6.15,6.15,0,0,0,2.27-1l1,1H302l.64-.63v-3.25a1,1,0,0,0-.85-.66.55.55,0,0,1-.58-.41V163.66l-.95-.94H295l-.71.7v3.12s.3.72.82.72a.59.59,0,0,1,.62.43v3.76c0,.43-.53.4-.53.4a6.21,6.21,0,0,0-2-1H290A2.84,2.84,0,0,0,287.28,173.67Zm5,2.23.48-.48h2.4l.5.5v7.2l-.48.48h-2.42l-.48-.48Z"/><path class="cls-1" d="M282.81,170.88H274.5a3,3,0,0,0-3.06,2.91v11.46a2.93,2.93,0,0,0,2.89,2.89h8.72a2.86,2.86,0,0,0,2.79-2.83V173.68A2.88,2.88,0,0,0,282.81,170.88Zm-2.49,12.24-.48.48h-2.42l-.48-.48V175.9l.48-.48h2.4l.5.5Z"/><path class="cls-1" d="M214.41,183.6a.55.55,0,0,1-.58-.41V163.66l-1-.94H207.6l-.71.7v3.12s.3.72.82.72a.59.59,0,0,1,.62.43v3.76c0,.43-.53.4-.53.4a6.21,6.21,0,0,0-2-1h-3.1a2.84,2.84,0,0,0-2.76,2.79v11.77a2.78,2.78,0,0,0,2.67,2.71h3.17a6.15,6.15,0,0,0,2.27-1l1,1h5.63l.64-.63v-3.25A1,1,0,0,0,214.41,183.6Zm-6.09-.48-.48.48h-2.42l-.48-.48V175.9l.48-.48h2.4l.5.5Z"/><path class="cls-1" d="M159.93,170.88h-8.31a3,3,0,0,0-3.06,2.91v11.46a2.92,2.92,0,0,0,2.88,2.88h8.73a2.82,2.82,0,0,0,2.76-2.82v-11.4A2.86,2.86,0,0,0,159.93,170.88Zm-2.49,12.24-.48.48h-2.43l-.48-.51v-7.2l.48-.48,2.4,0,.51.54Z"/><path class="cls-1" d="M267.27,170.88h-3c-.78,0-2,1-2.4,1,0,0-1-1-1-1h-5.52l-.72.72v3.12s.22.7.82.7.62.57.62.57v6.8c0,.9-1.44.6-1.44,1.77v2.88l.7.7h7l.67-.67v-3.06c0-.93-1.44-.92-1.44-1.58V175.9l.5-.48h2.23s.66.35.66.85a1.54,1.54,0,0,0,.93,1.31h3.18l.9-.9v-3.07A2.94,2.94,0,0,0,267.27,170.88Z"/><path class="cls-1" d="M343.08,170.89a.61.61,0,0,1-.62-.34V167l-.7-.7h-4.11L337,167v3.59a.51.51,0,0,1-.54.31,1,1,0,0,0-.9.71v3.09s.19.74.82.74.62.25.62.25v11.76l.7.7h5.54l.7-.7v-3.09c0-.78-1.44-.8-1.44-1.47v-7.14s.09-.32.59-.32c.69,0,.85-.73.85-.73V171.6S343.68,170.89,343.08,170.89Z"/><path class="cls-1" d="M331.29,170.88h-7.83a3,3,0,0,0-3.06,2.91v11.46a2.74,2.74,0,0,0,2.86,2.89h8.28a2.8,2.8,0,0,0,2.76-2.8v-3.45l-.94-.93h-3.18s-.9.5-.9,1.28a.83.83,0,0,1-.71.88h-2.19l-.48-.48V175.9l.48-.48h2.21s.7.27.7.8a1.51,1.51,0,0,0,.9,1.36h3.21l.9-.9v-2.83A2.83,2.83,0,0,0,331.29,170.88Z"/><path class="cls-1" d="M83.43,170.88h-3a6.31,6.31,0,0,0-2.27,1l-1.09-1H71.52l-.77.75,0,3.09s.22.7.82.7.62.32.62.32v7c0,.9-1.44.6-1.44,1.77v2.88l.69.69h7l.66-.66s0-2.28,0-3c0-.93-1.46-.9-1.46-1.56v-7l.5-.5h2.31s.59.26.59.76a1.48,1.48,0,0,0,.94,1.39l3.21,0,.84-.84v-3.15A2.93,2.93,0,0,0,83.43,170.88Z"/><path class="cls-1" d="M68.8,175.42c.6,0,.8-.75.8-.75l0-3.13a1,1,0,0,0-1-.65c-.51,0-.46-.34-.46-.34l0-3.51-.72-.72-4.11,0-.69.69v3.54s0,.31-.54.31a1,1,0,0,0-.9.71v3.09s.16.73.79.73c.81,0,.65.26.65.26v11.76l.69.69h5.55l.69-.6s0-2.67,0-3.18c0-.78-1.46-.89-1.46-1.49v-7.05S68.13,175.44,68.8,175.42Z"/><path class="cls-1" d="M55.9,181s-.94.53-.94,1.25a1,1,0,0,1-.6.91H52.11l-.53-.48V175.9l.48-.48h2.22a.82.82,0,0,1,.69.8c0,.69,1,1.36,1,1.36h3.16l.9-.91v-2.85a2.81,2.81,0,0,0-3-2.94H49.14a3,3,0,0,0-3.06,2.91v11.46A2.92,2.92,0,0,0,49,188.13h8.25A2.82,2.82,0,0,0,60,185.34v-3.42l-1-1Z"/><path class="cls-1" d="M41.54,170.88H33.76a3,3,0,0,0-3,3V185a3,3,0,0,0,3,3.18h8.07a2.84,2.84,0,0,0,2.86-2.91v-3.3l-.89-1H40.54s-.89.63-.89,1.32a.82.82,0,0,1-.54.84H36.69l-.47-.51v-2.87h7.71l.69-.72v-5.24A3,3,0,0,0,41.54,170.88ZM39.6,177.1l-.48.5H36.7l-.46-.48,0-2.16.49-.49h2.4l.49.49Z"/><path class="cls-1" d="M27.58,181.48V163.63l-.9-.89-5.32,0-.95,1s0,3.08,0,3.68,1.68,1.09,1.68,1.89v12.25c0,.82-1.68,1.12-1.68,1.93s0,3.71,0,3.71l.92,1h7l.91-.92s0-3,0-3.76S27.58,182.32,27.58,181.48Z"/><path class="cls-1" d="M0,183.54c0,.78,0,3.72,0,3.72l1,.87H18l.9-1v-6.48l-.93-.93-3.84,0s-.93.66-.93,1.2,0,.93,0,.93l-.75.72h-4l-.75-.75,0-3.57.72-.72,4.59,0,.9-.78v-3.3l-.9-.93H8.4l-.75-.75v-3.33l.78-.75,3.94,0,.83.79v.9c0,.6.93,1.23.93,1.23H18l.9-.9v-6.06l-.87-.93H1l-1,1s0,2.49,0,3.48c0,1.23,1.65,1.29,1.65,2.16v12.24C1.68,182.52,0,182.46,0,183.54Z"/><path class="cls-1" d="M94.31,182.72V171.57l-.68-.69H88l-.67.67v3.21s.35.67.71.67.73.47.73.47v11.49l.73.75h5.55l.66-.69v-3.07C95.74,183.33,94.31,183.76,94.31,182.72Z"/><path class="cls-1" d="M142.72,172.56h-7.36l-.74-.71v-3.37l.74-.74h4.3a1.49,1.49,0,0,1,.74,1.33,2.1,2.1,0,0,0,.88,1.56h4l.87-.9v-6.06l-.9-.94H133.33a4.43,4.43,0,0,0-4.45,4.36v6.33a4.43,4.43,0,0,0,4.15,4.17h6.44s.93.6.93,1,0,2.82,0,3.12-.93.95-.93.95h-4.13a1.77,1.77,0,0,1-.75-1.34,2.37,2.37,0,0,0-.87-1.54h-3.93l-.94,1v6.52l.91.9h13a4.41,4.41,0,0,0,4.29-4.32v-7A4.43,4.43,0,0,0,142.72,172.56Z"/><path class="cls-1" d="M180.36,183.61c-.36,0-.68-.42-.68-.42l.06-11.61-.69-.7H175l-.73.72v11.5l-.51.5-2.42,0-.45-.44V171.78l-.9-.9h-4.89l-.66.58v3.3s.43.67.76.67.68.5.68.5v9.27a2.9,2.9,0,0,0,2.8,2.94h2.73a6.38,6.38,0,0,0,2.43-1s.92,1,1.16,1h5.53l.69-.64v-3.27S180.78,183.61,180.36,183.61Z"/><path class="cls-1" d="M198,183.6c-.32,0-.72-.61-.72-.61v-9.31a2.75,2.75,0,0,0-2.81-2.8h-3.08a6.9,6.9,0,0,0-2.22,1l-.93-1h-5.62l-.68.69v3.19a1,1,0,0,0,.84.67c.6,0,.59.43.59.43v11.56l.72.73h4.09l.7-.7V175.9l.48-.47h2.38l.51.5v11.3l.93.92H198l.44-.46v-3.51S198.39,183.6,198,183.6Z"/><path class="cls-1" d="M241.45,188.15l.94-1v-3.84s-.38-1-1-1c-.38,0-.71-.69-.71-.69v-3.41h8a4.31,4.31,0,0,0,4.51-4.58v-6.45a4.28,4.28,0,0,0-4.46-4.56H234l-1,1v3.89s.63.89,1,.89.71.62.71.62v12.68s-.35.64-.71.64-1,.91-1,.91v3.89l1,1Zm-.74-19.69.71-.71h4.2c.39,0,.86.95.86,1.42V172c0,.36-.5,1.32-.88,1.32h-4.18l-.71-.72Z"/><path class="cls-1" d="M347.94,170.88a2.76,2.76,0,0,0-2.82,3v3c0,.84,1,1.44,1,1.44s5.83,3.41,7,4.09c.83.49.71.46.71,1,0,.1-.36.48-.48.48h-2.66s-.24-.12-.24-.71a1.36,1.36,0,0,0-.9-1.21h-3.42l-.94.94v4.38l.93.9h10.23a2.7,2.7,0,0,0,2.74-2.76V182.1c0-.75-1-1.37-1-1.37l-7.44-4.33c-.22-.14-.22-.28-.22-.71,0-.11.36-.51.48-.51h2.88s.24.14.24.72c0,.74.91,1.2.91,1.2h3.23l.88-.91v-4.37l-.94-.94Z"/><path class="cls-1" d="M318.12,183.61a.57.57,0,0,1-.61-.42V171.6l-.7-.72h-4.09l-.72.72v11.53l-.48.47h-2.41l-.48-.48V171.81l-.91-.93h-4.89l-.67.58v3.3s.43.67.76.67.68.5.68.5v9.27a2.9,2.9,0,0,0,2.8,2.94h2.73a6.38,6.38,0,0,0,2.43-1s.92,1,1.16,1h5.53l.69-.64v-3.27S318.64,183.61,318.12,183.61Z"/></g></g></svg>